<svg width="640" height="640" viewBox="0 0 640 640" fill="none" xmlns="http://www.w3.org/2000/svg">
<g clip-path="url(#clip0_75_15)">
<mask id="mask0_75_15" style="mask-type:alpha" maskUnits="userSpaceOnUse" x="0" y="26" width="641" height="587">
<path fill-rule="evenodd" clip-rule="evenodd" d="M282.448 255.084C303.288 234.245 337.076 234.245 357.916 255.084L624.734 521.903C645.574 542.742 645.574 576.53 624.734 597.37C603.894 618.21 570.106 618.21 549.266 597.37L320.182 368.286L91.0974 597.37C70.2576 618.21 36.4696 618.21 15.6298 597.37C-5.20995 576.53 -5.20995 542.742 15.6298 521.903L282.448 255.084Z" fill="white"/>
<path d="M160.091 292.818C160.091 204.402 231.766 132.727 320.182 132.727C408.598 132.727 480.273 204.402 480.273 292.818C480.273 302.614 479.393 312.204 477.708 321.513L561.977 405.782C578.031 371.478 587 333.195 587 292.818C587 145.459 467.541 26 320.182 26C172.822 26 53.3636 145.459 53.3636 292.818C53.3636 333.195 62.3325 371.478 78.3866 405.782L162.655 321.513C160.971 312.204 160.091 302.614 160.091 292.818Z" fill="white"/>
</mask>
<g mask="url(#mask0_75_15)">
<rect x="-77.8184" y="340" width="795" height="104" fill="#F12913"/>
<rect x="-76.8184" y="258" width="795" height="102" fill="#F45801"/>
<rect x="-77.8184" y="165" width="795" height="111" fill="#F67900"/>
<rect x="-77.8184" y="81" width="795" height="113" fill="#F69600"/>
<rect x="-77.8184" y="9" width="795" height="101" fill="#F5B019"/>
<rect x="-77.8184" y="493" width="795" height="141" fill="#3813F1"/>
<rect x="-77.8184" y="417" width="795" height="112" fill="#5A12F2"/>
<path d="M148.279 349H499.609L577.182 445H45.1816L148.279 349Z" fill="#7213F3"/>
<path d="M194.743 265H438.108L487.182 362H154.182L194.743 265Z" fill="#8715F4"/>
<rect x="215.182" y="194" width="211" height="84" fill="#9A19F5"/>
</g>
</g>
<defs>
<clipPath id="clip0_75_15">
<rect width="640" height="640" fill="white"/>
</clipPath>
</defs>
</svg>
